<svg width="592.02001953125px" height="124.439990234375px" xmlns="http://www.w3.org/2000/svg" viewBox="-46.010009765625 12.780004882812499 592.02001953125 124.439990234375" style="background:#051103" preserveAspectRatio="xMidYMid"><defs><linearGradient id="editing-glowing-gradient" x1="0.8146601955249186" x2="0.18533980447508142" y1="0.8885729807284856" y2="0.11142701927151444"><stop offset="0" stop-color="#67ff43"></stop><stop offset="1" stop-color="#90ffff"></stop></linearGradient><filter id="editing-glowing" x="-100%" y="-100%" width="300%" height="300%"><feGaussianBlur in="SourceGraphic" result="blur" stdDeviation="10"></feGaussianBlur><feMerge><feMergeNode in="blur"></feMergeNode><feMergeNode in="SourceGraphic"></feMergeNode></feMerge></filter></defs><g filter="url(#editing-glowing)"><g transform="translate(44.304128646850586, 104.47000122070312)"><path d="M29.18 1.28L29.18 1.28L29.18 1.28Q20.99 1.28 20.22-10.37L20.22-10.37L9.22-10.37L9.22-10.37Q7.94-7.42 7.04-4.86L7.04-4.86L5.38 0L-3.58 0L16.58-42.24L30.34-42.24L33.02-11.14L33.02-11.14Q33.66-4.42 36.22-2.43L36.22-2.43L36.22-2.43Q34.37 1.28 29.18 1.28ZM14.72-23.17L11.20-15.04L20.03-15.04L19.26-31.49L19.26-33.22L14.72-23.17ZM60.29-7.23L60.29-7.23L60.29-7.23Q56.96-3.78 50.88-3.78L50.88-3.78L50.88-3.78Q43.26-3.78 41.66-9.34L41.66-9.34L41.66-9.34Q41.15-11.01 41.15-12.86L41.15-12.86L41.15-12.86Q41.15-14.72 41.54-16.64L41.54-16.64L44.54-32.64L57.54-33.92L54.02-15.30L54.02-15.30Q53.89-14.46 53.70-13.57L53.70-13.57L53.70-13.57Q53.50-12.67 53.50-11.74L53.50-11.74L53.50-11.74Q53.50-10.82 53.82-10.21L53.82-10.21L53.82-10.21Q54.14-9.60 54.59-9.22L54.59-9.22L54.59-9.22Q55.36-8.70 56.74-8.70L56.74-8.70L56.74-8.70Q58.11-8.70 59.30-10.37L59.30-10.37L59.30-10.37Q60.48-12.03 61.06-14.91L61.06-14.91L64.58-32.64L77.18-33.92L72.38-8.77L72.38-8.77Q70.02 3.52 65.15 8.38L65.15 8.38L65.15 8.38Q62.66 10.88 59.42 11.87L59.42 11.87L59.42 11.87Q56.19 12.86 52.03 12.86L52.03 12.86L52.03 12.86Q45.31 12.86 41.47 10.75L41.47 10.75L41.47 10.75Q37.63 8.64 37.63 5.12L37.63 5.12L37.63 5.12Q37.63 2.50 39.62 0.99L39.62 0.99L39.62 0.99Q41.60-0.51 44.67-0.51L44.67-0.51L44.67-0.51Q47.36-0.51 49.41 0.64L49.41 0.64L49.41 0.64Q50.62 1.34 51.20 2.24L51.20 2.24L51.20 2.24Q49.73 3.52 49.73 5.63L49.73 5.63L49.73 5.63Q49.73 8.45 52.29 8.45L52.29 8.45L52.29 8.45Q56.51 8.45 58.94-1.28L58.94-1.28L58.94-1.28Q59.65-4.16 60.29-7.23ZM82.27-1.92L82.27-1.92L82.27-1.92Q80.77-3.58 80.10-6.21L80.10-6.21L80.10-6.21Q79.42-8.83 79.42-13.12L79.42-13.12L79.42-13.12Q79.42-17.41 80.90-21.31L80.90-21.31L80.90-21.31Q82.37-25.22 85.06-28.03L85.06-28.03L85.06-28.03Q90.56-33.92 99.65-33.92L99.65-33.92L99.65-33.92Q102.91-33.92 105.28-32.83L105.28-32.83L116.22-33.92L111.49-8.96L111.49-8.96Q111.30-8.19 111.30-6.78L111.30-6.78L111.30-6.78Q111.30-5.38 112.16-4.48L112.16-4.48L112.16-4.48Q113.02-3.58 114.30-3.46L114.30-3.46L114.30-3.46Q113.66-1.28 111.33 0L111.33 0L111.33 0Q108.99 1.28 106.37 1.28L106.37 1.28L106.37 1.28Q103.74 1.28 101.98 0.29L101.98 0.29L101.98 0.29Q100.22-0.70 99.71-2.37L99.71-2.37L99.71-2.37Q98.69-0.77 96.51 0.26L96.51 0.26L96.51 0.26Q94.34 1.28 91.42 1.28L91.42 1.28L91.42 1.28Q88.51 1.28 86.14 0.51L86.14 0.51L86.14 0.51Q83.78-0.26 82.27-1.92ZM95.78-27.90L95.78-27.90L95.78-27.90Q95.04-26.75 94.40-24.80L94.40-24.80L94.40-24.80Q93.76-22.85 92.70-17.63L92.70-17.63L92.70-17.63Q91.65-12.42 91.65-8.70L91.65-8.70L91.65-8.70Q91.65-4.99 92.22-3.90L92.22-3.90L92.22-3.90Q92.80-2.82 93.82-2.82L93.82-2.82L93.82-2.82Q95.87-2.82 97.38-4.77L97.38-4.77L97.38-4.77Q98.88-6.72 99.46-10.18L99.46-10.18L102.85-28.93L102.85-28.93Q101.50-30.08 99.94-30.08L99.94-30.08L99.94-30.08Q98.37-30.08 97.44-29.57L97.44-29.57L97.44-29.57Q96.51-29.06 95.78-27.90ZM146.75 1.28L146.75 1.28L146.75 1.28Q139.01 1.28 139.01-4.74L139.01-4.74L139.01-4.74Q139.07-6.40 139.58-9.22L139.58-9.22L140.74-15.10L140.74-15.10Q142.46-23.42 142.46-25.28L142.46-25.28L142.46-25.28Q142.46-28.99 140.29-28.99L140.29-28.99L140.29-28.99Q136.64-28.99 134.72-19.46L134.72-19.46L130.94 0L118.08 1.28L124.74-32.70L135.23-33.92L134.21-27.65L134.21-27.65Q137.22-33.92 146.43-33.92L146.43-33.92L146.43-33.92Q150.91-33.92 152.80-32.03L152.80-32.03L152.80-32.03Q154.69-30.14 154.69-25.92L154.69-25.92L154.69-25.92Q154.69-21.95 152.64-12.67L152.64-12.67L152.64-12.67Q151.68-8.51 151.68-6.94L151.68-6.94L151.68-6.94Q151.68-5.38 152.54-4.48L152.54-4.48L152.54-4.48Q153.41-3.58 154.69-3.46L154.69-3.46L154.69-3.46Q154.05-1.28 151.84 0L151.84 0L151.84 0Q149.63 1.28 146.75 1.28ZM201.09 1.28L201.09 1.28L201.09 1.28Q192.90 1.28 192.13-10.37L192.13-10.37L181.12-10.37L181.12-10.37Q179.84-7.42 178.94-4.86L178.94-4.86L177.28 0L168.32 0L188.48-42.24L202.24-42.24L204.93-11.14L204.93-11.14Q205.57-4.42 208.13-2.43L208.13-2.43L208.13-2.43Q206.27 1.28 201.09 1.28ZM186.62-23.17L183.10-15.04L191.94-15.04L191.17-31.49L191.17-33.22L186.62-23.17ZM257.92 1.28L257.92 1.28L257.92 1.28Q250.18 1.28 250.18-4.74L250.18-4.74L250.18-4.74Q250.18-7.36 251.30-12.45L251.30-12.45L251.30-12.45Q252.42-17.54 252.80-19.58L252.80-19.58L252.80-19.58Q253.70-24.26 253.70-25.73L253.70-25.73L253.70-25.73Q253.70-28.99 251.26-28.99L251.26-28.99L251.26-28.99Q249.66-28.99 248.13-26.78L248.13-26.78L248.13-26.78Q246.59-24.58 245.89-20.16L245.89-20.16L241.92 0L229.44 1.28L232.90-16.13L232.90-16.13Q233.47-19.01 233.98-22.27L233.98-22.27L233.98-22.27Q234.50-25.54 234.50-26.05L234.50-26.05L234.50-26.05Q234.50-28.99 232.32-28.99L232.32-28.99L232.32-28.99Q230.85-28.99 229.25-26.82L229.25-26.82L229.25-26.82Q227.65-24.64 226.75-20.16L226.75-20.16L222.85 0L210.24 1.28L216.96-32.64L227.39-33.92L226.30-27.46L226.30-27.46Q227.97-30.91 231.04-32.42L231.04-32.42L231.04-32.42Q234.11-33.92 238.91-33.92L238.91-33.92L238.91-33.92Q241.66-33.92 243.46-32.58L243.46-32.58L243.46-32.58Q245.25-31.23 245.82-29.06L245.82-29.06L245.82-29.06Q246.91-31.30 249.70-32.61L249.70-32.61L249.70-32.61Q252.48-33.92 255.90-33.92L255.90-33.92L255.90-33.92Q259.33-33.92 261.02-33.18L261.02-33.18L261.02-33.18Q262.72-32.45 263.74-31.23L263.74-31.23L263.74-31.23Q265.47-28.99 265.47-24.90L265.47-24.90L265.47-24.90Q265.47-20.86 263.74-12.48L263.74-12.48L263.74-12.48Q262.85-8.38 262.85-6.88L262.85-6.88L262.85-6.88Q262.85-5.38 263.71-4.48L263.71-4.48L263.71-4.48Q264.58-3.58 265.86-3.46L265.86-3.46L265.86-3.46Q265.22-1.28 263.01 0L263.01 0L263.01 0Q260.80 1.28 257.92 1.28ZM269.95-3.07L269.95-3.07L277.89-44.80L290.88-46.08L288.90-36.29L288.90-36.29Q288.19-33.28 287.30-31.17L287.30-31.17L287.30-31.17Q288.70-32.96 291.78-33.66L291.78-33.66L291.78-33.66Q292.67-33.92 293.76-33.92L293.76-33.92L293.76-33.92Q299.71-33.92 302.98-30.30L302.98-30.30L302.98-30.30Q306.24-26.69 306.24-19.71L306.24-19.71L306.24-19.71Q306.24-10.62 301.06-4.93L301.06-4.93L301.06-4.93Q295.49 1.28 285.38 1.28L285.38 1.28L285.38 1.28Q278.40 1.28 273.15-1.02L273.15-1.02L273.15-1.02Q271.30-1.86 269.95-3.07ZM286.21-22.40L282.82-3.65L282.82-3.65Q284.16-2.50 285.82-2.50L285.82-2.50L285.82-2.50Q287.49-2.50 288.45-3.14L288.45-3.14L288.45-3.14Q289.41-3.78 290.11-5.06L290.11-5.06L290.11-5.06Q292.03-8.51 293.57-19.07L293.57-19.07L293.57-19.07Q294.02-22.08 294.02-25.09L294.02-25.09L294.02-25.09Q294.02-28.10 293.34-29.06L293.34-29.06L293.34-29.06Q292.67-30.02 291.39-30.02L291.39-30.02L291.39-30.02Q287.49-30.02 286.21-22.40L286.21-22.40ZM336-10.82L336-10.82L336-10.82Q337.60-9.73 337.60-7.33L337.60-7.33L337.60-7.33Q337.60-4.93 336.38-3.39L336.38-3.39L336.38-3.39Q335.17-1.86 333.18-0.83L333.18-0.83L333.18-0.83Q329.09 1.28 324.67 1.28L324.67 1.28L324.67 1.28Q320.26 1.28 317.66 0.32L317.66 0.32L317.66 0.32Q315.07-0.64 313.34-2.43L313.34-2.43L313.34-2.43Q309.95-5.82 309.95-12.03L309.95-12.03L309.95-12.03Q309.95-21.70 315.20-27.58L315.20-27.58L315.20-27.58Q320.83-33.92 330.62-33.92L330.62-33.92L330.62-33.92Q336.70-33.92 339.71-31.36L339.71-31.36L339.71-31.36Q341.95-29.44 341.95-26.30L341.95-26.30L341.95-26.30Q341.95-15.04 322.50-15.04L322.50-15.04L322.50-15.04Q322.24-13.38 322.24-11.97L322.24-11.97L322.24-11.97Q322.24-9.02 323.55-7.90L323.55-7.90L323.55-7.90Q324.86-6.78 327.30-6.78L327.30-6.78L327.30-6.78Q329.73-6.78 332.32-7.90L332.32-7.90L332.32-7.90Q334.91-9.02 336-10.82ZM322.94-17.79L322.94-17.79L322.94-17.79Q327.49-17.79 330.11-20.61L330.11-20.61L330.11-20.61Q332.74-23.30 332.74-27.58L332.74-27.58L332.74-27.58Q332.74-29.06 332.19-29.86L332.19-29.86L332.19-29.86Q331.65-30.66 330.56-30.66L330.56-30.66L330.56-30.66Q329.47-30.66 328.54-30.24L328.54-30.24L328.54-30.24Q327.62-29.82 326.66-28.42L326.66-28.42L326.66-28.42Q324.29-25.22 322.94-17.79ZM363.26-22.46L363.26-22.46L363.26-22.46Q364.16-24.83 364.16-26.88L364.16-26.88L364.16-26.88Q364.16-30.66 361.09-30.66L361.09-30.66L361.09-30.66Q359.49-30.66 358.18-29.22L358.18-29.22L358.18-29.22Q356.86-27.78 356.86-25.98L356.86-25.98L356.86-25.98Q356.86-24.70 357.89-23.68L357.89-23.68L357.89-23.68Q359.36-22.27 363.14-19.97L363.14-19.97L363.14-19.97Q366.91-17.66 368.35-15.78L368.35-15.78L368.35-15.78Q369.79-13.89 369.79-11.30L369.79-11.30L369.79-11.30Q369.79-8.70 368.54-6.34L368.54-6.34L368.54-6.34Q367.30-3.97 365.06-2.30L365.06-2.30L365.06-2.30Q360.26 1.28 352.58 1.28L352.58 1.28L352.58 1.28Q348.42 1.28 345.22-0.90L345.22-0.90L345.22-0.90Q342.02-3.01 342.02-5.50L342.02-5.50L342.02-5.50Q342.02-8 343.84-9.47L343.84-9.47L343.84-9.47Q345.66-10.94 348.35-10.94L348.35-10.94L348.35-10.94Q351.04-10.94 352.70-9.92L352.70-9.92L352.70-9.92Q351.87-7.81 351.87-6.40L351.87-6.40L351.87-6.40Q351.87-2.18 355.46-2.18L355.46-2.18L355.46-2.18Q356.99-2.18 358.02-3.14L358.02-3.14L358.02-3.14Q359.04-4.10 359.04-5.76L359.04-5.76L359.04-5.76Q359.04-9.02 353.54-12.48L353.54-12.48L353.54-12.48Q349.06-15.42 348.03-16.58L348.03-16.58L348.03-16.58Q346.30-18.62 346.30-21.18L346.30-21.18L346.30-21.18Q346.30-23.74 347.52-26.18L347.52-26.18L347.52-26.18Q348.74-28.61 350.98-30.34L350.98-30.34L350.98-30.34Q355.65-33.92 363.78-33.92L363.78-33.92L363.78-33.92Q367.94-33.92 370.40-32.26L370.40-32.26L370.40-32.26Q372.86-30.59 372.86-27.78L372.86-27.78L372.86-27.78Q372.86-24.96 371.17-23.36L371.17-23.36L371.17-23.36Q369.47-21.76 366.40-21.76L366.40-21.76L366.40-21.76Q364.29-21.76 363.26-22.46ZM407.42-7.10L407.42-7.10L407.42-7.10Q407.42-4.29 410.30-3.46L410.30-3.46L410.30-3.46Q409.60-1.09 406.85 0.19L406.85 0.19L406.85 0.19Q404.54 1.28 402.02 1.28L402.02 1.28L402.02 1.28Q399.49 1.28 398.18 0.61L398.18 0.61L398.18 0.61Q396.86-0.06 396.16-1.15L396.16-1.15L396.16-1.15Q395.01-2.82 395.01-5.95L395.01-5.95L395.01-5.95Q395.01-7.81 396.03-12.93L396.03-12.93L396.93-17.79L396.93-17.79Q398.02-23.36 398.02-25.41L398.02-25.41L398.02-25.41Q398.02-28.99 396.03-28.99L396.03-28.99L396.03-28.99Q393.54-28.99 391.94-25.34L391.94-25.34L391.94-25.34Q391.30-23.94 390.85-21.82L390.85-21.82L386.50 0L373.63 1.28L382.66-44.80L395.52-46.08L395.01-43.52L395.01-43.52Q393.22-33.66 391.68-30.34L391.68-30.34L391.68-30.34Q395.26-33.92 401.86-33.92L401.86-33.92L401.86-33.92Q408.83-33.92 410.11-29.31L410.11-29.31L410.11-29.31Q410.56-27.84 410.56-26.56L410.56-26.56L410.56-26.56Q410.56-25.28 410.46-24.29L410.46-24.29L410.46-24.29Q410.37-23.30 410.05-21.50L410.05-21.50L409.22-16.90L407.74-9.66L407.74-9.66Q407.42-8.19 407.42-7.10Z" fill="url(#editing-glowing-gradient)"></path></g></g><style>text {
  font-size: 64px;
  font-family: Arial Black;
  dominant-baseline: central;
  text-anchor: middle;
}</style></svg>